<svg width="32" height="32" fill="none" xmlns="http://www.w3.org/2000/svg"><path fill-rule="evenodd" clip-rule="evenodd" d="M23.152 8.288c.799 2.982.097 5.762-2.107 8.34 1.216.445 1.96 1.386 2.231 2.823.406 2.059-.357 4.372-2.29 6.938-.192-.134-.261-.358-.21-.675.107-.518 2.357-3.697.085-6.7-.678-.964-1.795-1.572-3.352-1.823-.04 2.829.126 5.257.5 7.285.608 3.303.929 5.089.929 5.337 0 .165-.208.22-.625.167-1.353-.779-2.49-2.146-3.411-4.104-.921-1.957-1.466-4.826-1.633-8.606a7.66 7.66 0 012.221-.546 21.19 21.19 0 002.034-.27v.008c.795-.123 1.509-.161 2.142-.114.923-.987 1.898-2.832 1.551-5.933-.32-2.587-3.637-5.144-6.982-3.78-2.464 1.004-3.928 2.675-4.395 5.01-.274-.125-.522-.406-.743-.843-.348-.623 1.338-3.44 3.846-5.388 4.034-2.758 8.914-1.961 10.21 2.874z" fill="#EEBD2F"/><path fill-rule="evenodd" clip-rule="evenodd" d="M17.52 16.456a15.586 15.586 0 00-2.662 1.82c-.749.64-1.215 1.174-1.4 1.602a43.198 43.198 0 01-.19-2.608 7.66 7.66 0 012.222-.546 21.187 21.187 0 002.034-.27l-.004.002z" fill="#D8A000"/><path fill-rule="evenodd" clip-rule="evenodd" d="M14.911 9.965c.733.262.4.502.734.591.05.014.315-.057.49-.131.23-.097.404.308.582.443.22.165.44.1.71.358.073 2.77.098 3.89.097 5.229l-.135.02c-2.278.355-5.178 2.027-6.013 4.044-1.472 3.251-.174 6.94-.186 6.944-.835.224-3.533-2.705-2.639-6.432.536-2.537 2.66-3.742 4.739-4.275-.011-1.628.517-4.56 1.621-6.791z" fill="#FCDE8A"/></svg>